<mxfile host="www.draw.io" modified="2020-01-15T02:20:15.468Z" agent="Mozilla/5.0 (Macintosh; Intel Mac OS X 10_15_0) AppleWebKit/537.36 (KHTML, like Gecko) Chrome/79.0.3945.117 Safari/537.36" etag="F47tF7MnqBD1X7wSksvq" version="12.5.1" type="github">
  <diagram id="aZCxJuSlIvcBooWjbeyd" name="第 1 页">
    <mxGraphModel dx="1412" dy="735" grid="1" gridSize="10" guides="1" tooltips="1" connect="1" arrows="1" fold="1" page="1" pageScale="1" pageWidth="3300" pageHeight="4681" math="0" shadow="0">
      <root>
        <mxCell id="0"/>
        <mxCell id="1" parent="0"/>
        <mxCell id="33DxXMTeYKLRfr8SQd7x-1" value="Web应用" style="rounded=0;whiteSpace=wrap;html=1;" vertex="1" parent="1">
          <mxGeometry x="80" y="190" width="120" height="50" as="geometry"/>
        </mxCell>
        <mxCell id="33DxXMTeYKLRfr8SQd7x-2" value="微信小程序" style="rounded=0;whiteSpace=wrap;html=1;" vertex="1" parent="1">
          <mxGeometry x="80" y="330" width="120" height="50" as="geometry"/>
        </mxCell>
        <mxCell id="33DxXMTeYKLRfr8SQd7x-3" value="1.REST架构&lt;br&gt;&lt;br&gt;&lt;br&gt;&lt;br&gt;&lt;br&gt;2.通过GraphQL" style="rounded=0;whiteSpace=wrap;html=1;" vertex="1" parent="1">
          <mxGeometry x="300" y="140" width="120" height="290" as="geometry"/>
        </mxCell>
        <mxCell id="33DxXMTeYKLRfr8SQd7x-4" value="基本信息模块" style="rounded=0;whiteSpace=wrap;html=1;" vertex="1" parent="1">
          <mxGeometry x="520" y="140" width="120" height="50" as="geometry"/>
        </mxCell>
        <mxCell id="33DxXMTeYKLRfr8SQd7x-5" value="筛选模块" style="rounded=0;whiteSpace=wrap;html=1;" vertex="1" parent="1">
          <mxGeometry x="520" y="250" width="120" height="50" as="geometry"/>
        </mxCell>
        <mxCell id="33DxXMTeYKLRfr8SQd7x-6" value="信息列表模块" style="rounded=0;whiteSpace=wrap;html=1;" vertex="1" parent="1">
          <mxGeometry x="520" y="380" width="120" height="50" as="geometry"/>
        </mxCell>
        <mxCell id="33DxXMTeYKLRfr8SQd7x-7" value="BFF层" style="text;html=1;strokeColor=none;fillColor=none;align=center;verticalAlign=middle;whiteSpace=wrap;rounded=0;" vertex="1" parent="1">
          <mxGeometry x="340" y="100" width="40" height="20" as="geometry"/>
        </mxCell>
        <mxCell id="33DxXMTeYKLRfr8SQd7x-8" value="" style="endArrow=classic;html=1;entryX=-0.025;entryY=0.279;entryDx=0;entryDy=0;entryPerimeter=0;" edge="1" parent="1" target="33DxXMTeYKLRfr8SQd7x-3">
          <mxGeometry width="50" height="50" relative="1" as="geometry">
            <mxPoint x="200" y="220" as="sourcePoint"/>
            <mxPoint x="250" y="170" as="targetPoint"/>
          </mxGeometry>
        </mxCell>
        <mxCell id="33DxXMTeYKLRfr8SQd7x-9" value="" style="endArrow=classic;html=1;entryX=-0.025;entryY=0.279;entryDx=0;entryDy=0;entryPerimeter=0;" edge="1" parent="1">
          <mxGeometry width="50" height="50" relative="1" as="geometry">
            <mxPoint x="203" y="354.5" as="sourcePoint"/>
            <mxPoint x="300" y="355.40999999999997" as="targetPoint"/>
          </mxGeometry>
        </mxCell>
        <mxCell id="33DxXMTeYKLRfr8SQd7x-10" value="" style="endArrow=classic;html=1;entryX=-0.025;entryY=0.279;entryDx=0;entryDy=0;entryPerimeter=0;" edge="1" parent="1">
          <mxGeometry width="50" height="50" relative="1" as="geometry">
            <mxPoint x="423" y="164.5" as="sourcePoint"/>
            <mxPoint x="520" y="165.40999999999997" as="targetPoint"/>
          </mxGeometry>
        </mxCell>
        <mxCell id="33DxXMTeYKLRfr8SQd7x-11" value="" style="endArrow=classic;html=1;entryX=-0.025;entryY=0.279;entryDx=0;entryDy=0;entryPerimeter=0;" edge="1" parent="1">
          <mxGeometry width="50" height="50" relative="1" as="geometry">
            <mxPoint x="420" y="274.5" as="sourcePoint"/>
            <mxPoint x="517" y="275.40999999999997" as="targetPoint"/>
          </mxGeometry>
        </mxCell>
        <mxCell id="33DxXMTeYKLRfr8SQd7x-12" value="" style="endArrow=classic;html=1;entryX=-0.025;entryY=0.279;entryDx=0;entryDy=0;entryPerimeter=0;" edge="1" parent="1">
          <mxGeometry width="50" height="50" relative="1" as="geometry">
            <mxPoint x="423" y="404.5" as="sourcePoint"/>
            <mxPoint x="520" y="405.40999999999997" as="targetPoint"/>
          </mxGeometry>
        </mxCell>
      </root>
    </mxGraphModel>
  </diagram>
</mxfile>
